<svg width="26" height="26" viewBox="0 0 26 26" fill="none" xmlns="http://www.w3.org/2000/svg">
<path d="M10.4926 1.70139C11.5635 -0.303864 14.4365 -0.303864 15.5074 1.70139L25.3906 20.1906C25.6222 20.6239 25.7376 21.1097 25.7256 21.6008C25.7136 22.092 25.5746 22.5716 25.3221 22.993C25.0695 23.4144 24.7122 23.7632 24.2848 24.0054C23.8574 24.2476 23.3745 24.3749 22.8833 24.375H3.11677C2.62551 24.3749 2.14266 24.2476 1.71526 24.0054C1.28786 23.7632 0.930488 23.4144 0.677979 22.993C0.425469 22.5716 0.28643 22.092 0.274411 21.6008C0.262392 21.1097 0.377802 20.6239 0.609395 20.1906L10.4926 1.70139ZM13.3575 2.85026C13.3227 2.78577 13.2711 2.73189 13.2082 2.69434C13.1452 2.65679 13.0733 2.63697 13 2.63697C12.9267 2.63697 12.8548 2.65679 12.7919 2.69434C12.7289 2.73189 12.6773 2.78577 12.6425 2.85026L2.75927 21.3395C2.72616 21.4014 2.70962 21.4707 2.71128 21.5409C2.71294 21.611 2.73273 21.6795 2.76873 21.7397C2.80473 21.7999 2.8557 21.8498 2.91669 21.8845C2.97769 21.9191 3.04662 21.9374 3.11677 21.9375H22.8833C22.9534 21.9374 23.0224 21.9191 23.0833 21.8845C23.1443 21.8498 23.1953 21.7999 23.2313 21.7397C23.2673 21.6795 23.2871 21.611 23.2888 21.5409C23.2904 21.4707 23.2739 21.4014 23.2408 21.3395L13.3575 2.85026ZM14.2188 9.34376V13.4063C14.2188 13.7295 14.0904 14.0395 13.8618 14.268C13.6332 14.4966 13.3233 14.625 13 14.625C12.6768 14.625 12.3668 14.4966 12.1382 14.268C11.9097 14.0395 11.7813 13.7295 11.7813 13.4063V9.34376C11.7813 9.02053 11.9097 8.71054 12.1382 8.48198C12.3668 8.25342 12.6768 8.12501 13 8.12501C13.3233 8.12501 13.6332 8.25342 13.8618 8.48198C14.0904 8.71054 14.2188 9.02053 14.2188 9.34376ZM14.625 17.875C14.625 18.306 14.4538 18.7193 14.1491 19.0241C13.8443 19.3288 13.431 19.5 13 19.5C12.569 19.5 12.1557 19.3288 11.851 19.0241C11.5462 18.7193 11.375 18.306 11.375 17.875C11.375 17.444 11.5462 17.0307 11.851 16.726C12.1557 16.4212 12.569 16.25 13 16.25C13.431 16.25 13.8443 16.4212 14.1491 16.726C14.4538 17.0307 14.625 17.444 14.625 17.875Z" fill="white"/>
</svg>
